<svg clip-rule="evenodd" fill-rule="evenodd" height="512" stroke-linejoin="round" stroke-miterlimit="2" viewBox="0 0 32 32" width="512" xmlns="http://www.w3.org/2000/svg"><g><path d="m7.5 8.024 8.489 6.917.011-3.941s7.5 1 7 7-4.5 7-7 7-4-.5-5-2-2-5-2-5h-6s-.5 13 13 13 13-14 13-14-.989-8.5-7-10.5-6.011-1.5-6.011-1.5v-4z" fill="#da444c"/><path d="m9 6.5 7 5.5v3l-9-7z" fill="#ba1217"/><g fill="#ffdf91"><path d="m9 9.5 7-5.5v-3l-9 7z"/><path d="m20.5 6.756c4.472 3.029 7.806 8.244 7 15.244 0 0 3-7-1-12s-6-3.244-6-3.244z"/><path d="m3 20h4.5s.709 2.5 2.713 3l-1.213-5h-6z"/></g><path d="m16 10.177s7 1.823 7 6.823-5 8.671-5 8.671 7.079-.671 7-8.171c-.085-8.004-9-7.323-9-7.323z" fill="#ba1217"/><path d="m15.989 0c-.212.008-.416.083-.583.214l-9.006 6.998c-.244.189-.387.481-.387.79s.143.601.387.79l9.006 6.999c.175.133.389.206.608.206.549 0 1-.45 1.001-.997l-.007-2.849c.251.043.512.036.753.11.559.172 1.089.43 1.572.753.966.646 1.742 1.565 2.207 2.687.93 2.245.419 4.823-1.299 6.541s-4.295 2.229-6.54 1.299c-1.123-.465-2.041-1.241-2.687-2.207-.323-.484-.581-1.012-.753-1.573-.086-.28-.148-.57-.192-.863-.044-.294-.067-.597-.067-.901-.001-.547-.452-.997-.999-.997h-6.006c-.546.002-.995.451-.997.997 0 .707.052 1.411.156 2.097.103.685.256 1.36.457 2.015.402 1.309.996 2.541 1.75 3.669 1.506 2.254 3.666 4.077 6.282 5.16 5.228 2.165 11.249.96 15.251-3.042s5.207-10.022 3.041-15.251c-1.083-2.614-2.907-4.775-5.16-6.282-1.127-.753-2.361-1.348-3.669-1.749-.654-.201-1.323-.354-2.008-.458-.358-.054-.727-.055-1.092-.081l.007-3.071v-.005c0-.548-.451-.999-1.001-.999zm-.982 3.049v1.953c0 .548.452.999 1 .999h.004c.606 0 1.2.045 1.787.133.587.089 1.167.22 1.727.392 1.121.344 2.179.852 3.145 1.498 1.932 1.292 3.485 3.138 4.414 5.382 1.859 4.486.836 9.646-2.598 13.08s-8.594 4.457-13.081 2.599c-2.243-.93-4.09-2.482-5.381-4.415-.646-.966-1.155-2.03-1.499-3.152-.172-.561-.302-1.139-.391-1.727-.04-.259-.037-.527-.06-.79h4.002c.007.063.005.129.014.192.059.392.144.777.259 1.151.229.748.566 1.453.996 2.097.861 1.288 2.102 2.334 3.595 2.953 2.987 1.237 6.433.551 8.718-1.735 2.286-2.286 2.972-5.731 1.735-8.718-.618-1.493-1.658-2.734-2.945-3.595-.644-.43-1.35-.767-2.097-.997-.746-.229-1.533-.347-2.34-.347h-.004c-.547 0-.998.45-1 .997v1.949l-6.355-4.946z"/></g></svg>